<svg xmlns="http://www.w3.org/2000/svg" viewBox="0 0 559 897" width="300" height="500">
        <g>
            <path fill="#8B42C4" d="M432.387,390.241c-5.138-7.964-12.311-14.736-21.264-19.292c-8.957-4.557-21.184-6.836-36.948-6.836
                c-17.508,0-32.331,3.114-44.336,9.118c-6.927,3.462-11.903,7.554-14.723,12.154c-2.82,4.597-4.231,9.928-4.231,15.855
                c0,7.48,2.691,14.342,8.006,20.308c5.317,5.965,12.873,10.885,22.699,14.575c5.58,2.127,14.731,4.623,27.645,7.415l9.148,2.145
                c19.195,4.426,33.52,9.031,43.046,13.729c10.304,5.102,18.857,11.732,25.506,19.751c6.648,8.017,9.984,17.703,9.984,28.765
                c0,10.63-2.887,20.217-8.593,28.345c-5.707,8.129-13.811,14.725-24.024,19.494c-10.213,4.771-22.373,7.164-36.228,7.164
                c-15.66,0-29.49-2.555-41.264-7.595c-11.772-5.037-21.31-12.116-28.419-20.982c-5.734-7.104-9.534-15.706-11.253-25.49
                c-0.338-1.858-0.507-3.713-0.507-5.558c0-1.846,0.123-3.67,0.364-5.455c0.859-6.247,6.556-10.698,12.803-9.839
                c6.245,0.859,10.698,6.558,9.839,12.803c-0.108,0.788-0.162,1.576-0.162,2.491c0,1.008,0.073,2.014,0.215,3.01
                c1.165,7.415,3.985,13.703,8.404,19.344c5.03,6.241,12.301,11.557,21.578,15.541c9.279,3.983,20.276,5.974,32.803,5.974
                c10.68,0,20.018-1.929,27.816-5.734c7.798-3.806,13.634-8.959,17.277-15.124c3.643-6.163,5.41-12.937,5.41-20.142
                c0-8.405-2.564-15.825-7.622-22.045c-5.058-6.221-12.317-11.42-21.585-15.408c-7.415-3.23-18.174-6.255-31.538-9.119l-9.172-2.149
                c-19.062-4.464-33.606-8.923-43.454-13.349c-10.227-4.81-18.712-11.047-25.22-18.517c-6.505-7.468-10.294-16.299-11.184-26.153
                c-0.188-2.028-0.283-4.064-0.283-6.094c0-9.202,2.232-17.792,6.675-25.507c4.442-7.711,10.766-14.397,18.781-19.782
                c8.014-5.384,17.854-9.572,29.326-12.405c5.854-1.42,12.482-2.262,19.832-2.262c8.192,0,16.423,0.91,24.589,2.705
                c8.161,1.793,15.746,4.424,22.642,7.849c6.894,3.422,12.876,7.741,17.824,12.825c4.945,5.085,8.809,10.844,11.462,17.051
                c2.652,6.205,4.006,12.92,4.006,19.852c0,6.245-5.06,11.305-11.305,11.305c-6.246,0-11.305-5.061-11.305-11.305
                C442.132,405.227,438.364,397.363,432.387,390.241z"/>
        </g>
    </svg>